<svg xmlns="http://www.w3.org/2000/svg" width="32" height="32" fill="none"><g clip-path="url(#a)"><path d="M0 0h32v32H0z"/><path fill="#F82B38" d="M6.543 17.4h4.4v-1.1h-4.4V9.7h5.5v5.5h-1.1v1.1h2.2v-1.1h1.1V13h1.1v-1.1h-1.1V9.7h-2.2V8.6h-9.9v1.1h2.2v13.2h-2.2V24h6.6v-1.1h-2.2v-5.5Zm22.453 2.354c0-1.98-1.32-3.432-3.586-4.004 1.65-.638 2.706-1.914 2.706-3.366 0-2.288-2.156-3.784-5.456-3.784h-6.886v.638l.506.044c1.034.088 1.562.616 1.562 1.628v10.78c0 1.012-.528 1.54-1.562 1.628l-.506.044V24h7.436c3.498 0 5.786-1.672 5.786-4.246Zm-6.49-4.246h-2.332V9.942h-.792v-.44h2.97c2.134 0 3.366 1.122 3.366 3.036 0 1.826-1.232 2.97-3.212 2.97Zm.286 7.59h-3.41v-.44h.792v-6.38h2.728c2.266 0 3.652 1.298 3.652 3.388 0 2.178-1.386 3.432-3.762 3.432Z"/></g><defs><clipPath id="a"><path fill="#fff" d="M0 0h32v32H0z"/></clipPath></defs></svg>