<svg width="32" height="32" viewBox="0 0 32 32" fill="none" xmlns="http://www.w3.org/2000/svg">
<g clip-path="url(#clip0_71_40)">

<path d="M7.86387 17.4V22.9H10.0639V24H3.46387V22.9H5.66387V9.7H3.46387V8.6H13.3639V9.7H15.5639V11.9H16.6639V13H15.5639V15.2H14.4639V16.3H12.2639V15.2H13.3639V9.7H7.86387V16.3H12.2639V17.4H7.86387ZM17.5353 24V24.22H17.3153V18.72H17.9753V18.94H18.1953V19.38H18.4153V19.82H18.6353V20.26H18.8553V20.7H19.0753V21.14H19.2953V21.36H19.5153V21.8H19.7353V22.02H19.9553V22.24H20.1753V22.46H20.6153V22.68H20.8353V22.9H21.2753V23.12H22.3753V23.34H23.2553V23.12H24.3553V22.9H24.7953V22.68H25.0153V22.46H25.2353V22.24H25.4553V22.02H25.6753V21.58H25.8953V20.92H26.1153V20.26H25.8953V19.38H25.6753V18.94H25.4553V18.72H25.2353V18.5H25.0153V18.28H24.7953V18.06H24.3553V17.84H23.9153V17.62H23.2553V17.4H22.5953V17.18H22.1553V16.96H21.4953V16.74H20.8353V16.52H20.3953V16.3H19.7353V16.08H19.2953V15.86H19.0753V15.64H18.6353V15.42H18.4153V15.2H18.1953V14.98H17.9753V14.54H17.7553V14.1H17.5353V13.22H17.3153V12.12H17.5353V11.24H17.7553V10.58H17.9753V10.14H18.1953V9.92H18.4153V9.7H18.6353V9.48H18.8553V9.26H19.0753V9.04H19.5153V8.82H19.9553V8.6H20.8353V8.38H23.0353V8.6H23.6953V8.82H24.1353V9.04H24.5753V9.26H24.7953V9.48H25.0153V9.7H25.2353V9.92H25.4553V10.14H25.6753V10.36H25.8953V10.8H26.1153V9.92H25.8953V9.7H25.6753V9.48H25.4553V9.26H25.6753V9.04H26.1153V8.82H26.5553V8.6H26.7753V8.38H26.9953V13.66H26.3353V13.44H26.1153V13H25.8953V12.34H25.6753V11.9H25.4553V11.46H25.2353V11.24H25.0153V10.8H24.7953V10.58H24.5753V10.36H24.3553V10.14H24.1353V9.92H23.6953V9.7H23.2553V9.48H20.8353V9.7H20.3953V9.92H19.9553V10.14H19.7353V10.36H19.5153V11.02H19.2953V12.56H19.5153V13H19.7353V13.22H19.9553V13.44H20.1753V13.66H20.3953V13.88H20.8353V14.1H21.2753V14.32H21.7153V14.54H22.3753V14.76H22.8153V14.98H23.4753V15.2H23.9153V15.42H24.5753V15.64H25.0153V15.86H25.6753V16.08H26.1153V16.3H26.3353V16.52H26.7753V16.74H26.9953V16.96H27.2153V17.4H27.4353V17.62H27.6553V18.06H27.8753V18.94H28.0953V20.48H27.8753V21.36H27.6553V21.8H27.4353V22.24H27.2153V22.46H26.9953V22.68H26.7753V22.9H26.5553V23.12H26.3353V23.34H25.8953V23.56H25.4553V23.78H25.0153V24H24.1353V24.22H21.7153V24H20.8353V23.78H20.3953V23.56H19.9553V23.34H19.7353V23.12H19.2953V22.9H19.0753V22.68H18.8553V22.46H18.6353V22.24H18.4153V21.8H18.1953V22.68H18.4153V22.9H18.6353V23.12H18.8553V23.34H18.6353V23.56H18.1953V23.78H17.9753V24H17.5353Z" fill="#F82B38"/>
</g>
<defs>
<clipPath id="clip0_71_40">
<rect width="32" height="32" fill="white"/>
</clipPath>
</defs>
</svg>
